<svg width="231" height="187" viewBox="0 0 231 187" fill="none" xmlns="http://www.w3.org/2000/svg">
<path d="M73.0992 186.722C122.892 183.101 120.446 -1.59565e-05 97.9954 0C-7.92693 0 -0.84153 50.9242 0.67363 56.5825C2.1888 62.2407 79.8891 62.2407 81.9701 37.9103C84.0511 13.5798 84.4157 70.1623 84.4157 70.1623C66.127 66.2015 12.6691 51.1506 6.33188 74.6889C-0.00535583 98.2272 52.7295 95.0585 79.8891 90.532C62.9143 112.033 37.7917 161.373 73.0992 186.722Z" fill="#7F0A07"/>
<path d="M157.902 186.722C108.109 183.101 110.555 -1.59565e-05 133.006 0C238.928 0 231.843 50.9242 230.327 56.5825C228.812 62.2407 151.112 62.2407 149.031 37.9103C146.95 13.5798 146.585 70.1623 146.585 70.1623C164.874 66.2015 218.332 51.1506 224.669 74.6889C231.006 98.2272 178.271 95.0585 151.112 90.532C168.087 112.033 193.209 161.373 157.902 186.722Z" fill="#7F0A07"/>
</svg>
